<?xml version="1.0" encoding="utf-8"?>
<!-- Generator: Adobe Illustrator 24.0.0, SVG Export Plug-In . SVG Version: 6.00 Build 0)  -->
<svg version="1.1" id="f2456a0d-5629-424d-81f1-cb25f2706be0"
	 xmlns="http://www.w3.org/2000/svg" xmlns:xlink="http://www.w3.org/1999/xlink" x="0px" y="0px" viewBox="0 0 758.8 848"
	 style="enable-background:new 0 0 758.8 848;" xml:space="preserve">
<style type="text/css">
	.st0{fill:#F2F2F2;}
	.st1{fill:#FFFFFF;}
	.st2{fill:#969696;}
</style>
<title>unicorn</title>
<ellipse class="st0" cx="503.1" cy="812.8" rx="205.1" ry="35.2"/>
<path class="st0" d="M465,837.7c-142.2,0-253.5-19.5-253.5-44.4s111.4-44.4,253.5-44.4s253.5,19.5,253.5,44.4S607.1,837.7,465,837.7
	z M465,751.2c-136.2,0-251.2,19.3-251.2,42.2s115,42.2,251.2,42.2s251.2-19.3,251.2-42.2S601.1,751.2,465,751.2L465,751.2z"/>
<path class="st0" d="M758.8,455c0,22.8-2.2,45.5-6.7,67.8c-0.7,3.4-1.4,6.9-2.2,10.3c-0.5,2.1-1,4.1-1.5,6.1c-0.3,1.3-0.7,2.6-1,4
	c-25.7,96.7-91.9,177.6-181.7,221.8c-14.6,7.2-29.6,13.3-45.1,18.3c-2.3,0.8-4.7,1.5-7.1,2.2h0c-32.4,9.8-66.1,14.7-99.9,14.7
	c-4.9,0-9.6-0.1-14.4-0.3c-12.8-0.6-25.5-2-38.1-4.2C206.6,767.7,130.8,615.5,68.4,455c-1.5-4-3.1-7.9-4.6-11.8
	c-0.4-1-0.7-1.9-1.1-2.9c-166.2-439.4,14-550.6,350.9-330.5C573.2,214.1,758.8,264.3,758.8,455z"/>
<path class="st0" d="M520.2,661.2l-1.6-1.6c0.2-0.2,24.9-24.4,34.3-69.5c8.7-41.7,5.7-110.3-57.5-200.5
	c-48.5-69.2-68.2-129.7-58.4-179.7c8.6-44,37.9-63.3,38.2-63.5l1.2,1.9c-0.3,0.2-28.8,19-37.2,62.1c-9.6,49.4,9.9,109.2,58,177.9
	c28.2,40.1,46.9,79.5,55.7,116.8c7.1,30,7.8,58.8,2.2,85.6C545.5,636.4,520.4,660.9,520.2,661.2z"/>
<path class="st0" d="M93.7,394.1c-11.1,15.7-21.1,32.1-29.9,49.1c-0.4-1-0.7-1.9-1.1-2.9c8.7-16.4,18.4-32.3,29.1-47.5
	c48.1-68.6,67.7-128.5,58-177.9c-8.4-43-36.9-61.9-37.2-62.1l1.2-1.9c0.3,0.2,29.6,19.5,38.2,63.5
	C161.9,264.4,142.2,324.9,93.7,394.1z"/>
<path class="st1" d="M278.6,767.1l-1.6-1.6c0.3-0.3,31.4-30.7,43.2-87.6c10.9-52.5,7.2-139-72.5-252.7
	c-33.3-47.5-56-92.4-67.5-133.4c-9.4-33.5-11.4-64.7-5.9-92.6c10.8-55.2,47.6-79.5,47.9-79.7l1.2,1.9c-0.4,0.2-36.3,24-46.9,78.3
	C164.4,262,189,337.4,249.7,423.9c35.4,50.5,59,99.9,70.1,147c8.9,37.7,9.8,73.9,2.7,107.6C310.5,736,278.9,766.8,278.6,767.1z"/>
<circle class="st1" cx="202.1" cy="158.5" r="88.2"/>
<path class="st1" d="M222.9,240.7c-66.4,0-120.2-53.8-120.2-120.2S156.5,0.3,222.9,0.3s120.2,53.8,120.2,120.2
	C343,186.8,289.3,240.6,222.9,240.7z M222.9,2.6C157.8,2.6,105,55.4,105,120.5c0,65.1,52.8,117.9,117.9,117.9
	s117.9-52.8,117.9-117.9c0,0,0,0,0,0C340.7,55.4,288,2.7,222.9,2.6L222.9,2.6z"/>
<circle class="st1" cx="290.3" cy="358.6" r="73.1"/>
<circle class="st1" cx="253" cy="612.4" r="73.1"/>
<path class="st2" d="M748.4,539.2c-0.8-3.9-1.5-7.8-2.4-11.7c0,0,0,0,0,0c0,0,0,0,0,0c-10.2-48.5-24-88.4-40.3-120.8l-43.3-14.9
	l32.6-4.7c-13.2-22.4-27.7-40.7-43.1-55.6l-79.5,9.1l60-25.7c-110.2-82.9-254.7-16.3-294.1,4.6c-5.4,2.9-8.8,4.9-9.9,5.5
	c0,0,0,0,0,0c-0.2,0.1-0.4,0.2-0.4,0.2l22.4,11.6h0l397,206.2L748.4,539.2z"/>
<path d="M748.4,539.2c0.5-2,1-4.1,1.5-6.1c-1.2-1.7-2.4-3.6-3.8-5.5c0,0,0,0,0,0c0,0,0,0,0,0c-45.8-65.5-213.6-279.3-406.9-206.7h0
	c-3.6,1.3-7.2,2.8-10.8,4.3c0,0,0,0,0,0c-3.3,1.4-6.5,2.9-9.8,4.5c-1.7,0.8-3.3,1.6-5,2.4c-1.4,0.7-2.9,1.5-4.3,2.2
	c0,0-8.2,2.1-17.4,9.8c-18.1,15.3-40,52.6-11,139.9c0,0,25.8,72.3,12.9,105.8c-12.9,33.5,67.1,72.3,90.3,0c23.2-72.3,31-142,31-142
	s26.7,56.3,24.1,112.7c-1.1,23.1,1,46.3,7.2,68.6c0.6,2.3,1.3,4.7,2,7c8.4,28.2,21.5,64.5,40.8,99.6c9.1,16.7,19.6,32.6,31.4,47.6
	c15.4-5,30.5-11.1,45.1-18.3c89.8-44.2,156.1-125,181.7-221.8L748.4,539.2z"/>
<polygon class="st2" points="317,360.1 306.7,274.9 350.6,336.9 "/>
<polygon class="st2" points="294.5,366.3 284.2,281.1 328.1,343 "/>
<polygon class="st2" points="272,445.6 161.8,302.3 273.4,402.6 "/>
<ellipse transform="matrix(0.3554 -0.9347 0.9347 0.3554 264.8267 526.1021)" class="st0" cx="513.8" cy="71" rx="17.1" ry="17.1"/>
</svg>
